<svg width="200" height="52" viewBox="0 0 200 52" fill="none" xmlns="http://www.w3.org/2000/svg">
<g clip-path="url(#clip0_11322_23497)">
<path d="M112.672 42.7655V42.7081C112.672 38.3503 116.055 34.5659 120.699 34.5659C125.344 34.5659 128.66 38.2834 128.66 42.6508V42.7081C128.66 47.0755 125.277 50.8503 120.642 50.8503C116.007 50.8503 112.681 47.1328 112.681 42.7655H112.672ZM127.035 42.7655V42.7081C127.035 38.9524 124.226 35.9707 120.633 35.9707C117.039 35.9707 114.287 38.9906 114.287 42.6508V42.7081C114.287 46.4639 117.097 49.4455 120.69 49.4455C124.283 49.4455 127.035 46.4256 127.035 42.7655Z" fill="#003399"/>
<path d="M133.275 34.9196H134.766V37.8152C135.808 35.9899 137.538 34.5469 140.376 34.5469C144.313 34.5469 146.597 37.2323 146.597 40.9498V50.4681H145.106V41.2269C145.106 38.0255 143.31 35.923 140.166 35.923C137.022 35.923 134.766 38.2453 134.766 41.4754V50.4777H133.275V34.9196Z" fill="#003399"/>
<path d="M152.188 28.2109H153.678V50.4778H152.188V28.2109Z" fill="#003399"/>
<path d="M159.604 28.8228H161.467V30.8679H159.604V28.8228ZM159.785 34.9198H161.276V50.478H159.785V34.9198Z" fill="#003399"/>
<path d="M167.174 34.9196H168.665V37.8152C169.706 35.9899 171.436 34.5469 174.274 34.5469C178.212 34.5469 180.496 37.2323 180.496 40.9498V50.4681H179.005V41.2269C179.005 38.0255 177.208 35.923 174.064 35.923C170.92 35.923 168.665 38.2453 168.665 41.4754V50.4777H167.174V34.9196Z" fill="#003399"/>
<path d="M184.805 42.7275V42.6702C184.805 38.1595 187.977 34.5566 192.182 34.5566C196.387 34.5566 199.321 38.0926 199.321 42.6988C199.321 42.976 199.321 43.062 199.292 43.3105H186.391C186.668 47.1809 189.44 49.4458 192.488 49.4458C194.896 49.4458 196.55 48.3754 197.83 47.0089L198.872 47.9263C197.286 49.6369 195.422 50.8506 192.431 50.8506C188.341 50.8506 184.805 47.5823 184.805 42.7371V42.7275ZM197.706 41.9534C197.496 38.8093 195.69 35.9137 192.125 35.9137C189.048 35.9137 186.668 38.5035 186.391 41.9534H197.706Z" fill="#003399"/>
<path d="M30.7441 19.887L33.4773 16.3415C35.3695 18.033 37.3573 19.1034 39.7656 19.1034C41.6578 19.1034 42.8045 18.2911 42.8045 16.9627V16.8958C42.8045 15.6248 42.0782 14.9749 38.5614 14.0002C34.3183 12.8343 31.5851 11.5632 31.5851 7.04298V6.97609C31.5851 2.84765 34.6528 0.124023 38.9532 0.124023C42.0209 0.124023 44.6107 1.16569 46.7514 3.01967L44.3432 6.78496C42.4796 5.3897 40.6639 4.53916 38.8959 4.53916C37.1279 4.53916 36.1914 5.41837 36.1914 6.51737V6.58427C36.1914 8.07509 37.0897 8.56248 40.7308 9.57548C45.0026 10.7796 47.4108 12.4329 47.4108 16.3989V16.4658C47.4108 20.986 44.2189 23.5185 39.6795 23.5185C36.4876 23.5185 33.2766 22.3144 30.7441 19.8775V19.887Z" fill="#003399"/>
<path d="M55.5237 14.5547L47.4102 0.783691H52.8287L57.8555 9.91022L62.9587 0.783691H68.2244L60.1586 14.4591V23.5283H55.5237V14.5547Z" fill="#003399"/>
<path d="M68.1289 11.831V11.7641C68.1289 5.29434 72.6205 0 79.0807 0C83.0563 0 85.4263 1.43349 87.3854 3.50726L84.442 7.17699C82.8174 5.58104 81.1641 4.60627 79.0616 4.60627C75.5161 4.60627 72.9836 7.78861 72.9836 11.6877V11.7546C72.9836 15.6537 75.4779 18.9029 79.0903 18.9029C81.4986 18.9029 82.9703 17.8612 84.6236 16.2366L87.567 19.4572C85.3976 21.961 82.9894 23.5187 78.9374 23.5187C72.7447 23.5187 68.1385 18.3486 68.1385 11.8215H68.1289V11.831Z" fill="#003399"/>
<path d="M90.7109 0.783691H95.3459V9.77643H103.889V0.783691H108.524L108.553 23.5283H103.918V14.3923H95.3746V23.5283H90.7396L90.7109 0.783691Z" fill="#003399"/>
<path d="M113.914 0.783691H118.549L118.578 23.5283H113.943L113.914 0.783691Z" fill="#003399"/>
<path d="M129.836 0.621094H134.108L143.158 23.5282H138.313L136.392 18.425H127.486L125.565 23.5282H120.844L129.836 0.621094ZM134.739 14.0099L131.92 6.63218L129.148 14.0099H134.739Z" fill="#003399"/>
<path d="M146.952 5.38996H140.539V0.783691H157.989V5.38996H151.586L151.615 23.5188H146.98L146.952 5.38996Z" fill="#003399"/>
<path d="M160.923 0.783691H170.547C173.223 0.783691 175.296 1.596 176.682 3.08683C177.858 4.35785 178.488 6.14493 178.488 8.2856V8.3525C178.488 12.0222 176.682 14.3349 173.997 15.4053L179.138 23.5283H173.72L169.209 16.2462H165.568V23.5283H160.933L160.904 0.783691H160.923ZM170.27 11.8311C172.525 11.8311 173.796 10.5314 173.796 8.61053V8.54363C173.796 6.40296 172.41 5.29439 170.155 5.29439H165.549L165.577 11.8215H170.27V11.8311Z" fill="#003399"/>
<path d="M187.272 14.5547L179.148 0.783691H184.567L189.594 9.91022L194.735 0.783691H200.001L191.906 14.4591V23.5283H187.272V14.5547Z" fill="#003399"/>
<path d="M20.7572 0.783691H12.1562V5.30395H20.3653C22.678 5.30395 24.1306 6.49852 24.1306 8.74432V8.81121C24.1306 10.7608 22.7736 12.2516 20.4609 12.2516H16.7912V6.95724H12.1562V23.5283H16.7912V16.7049H20.308C25.029 16.7049 28.8229 13.9718 28.8229 8.71565V8.64875C28.8229 4.00426 25.7839 0.783691 20.7572 0.783691Z" fill="#003399"/>
<g opacity="0.3">
<path d="M8.44801 0.391602H0V4.91186H8.44801V0.391602Z" fill="#003399"/>
</g>
<g opacity="0.3">
<path d="M8.44801 6.56494H0V11.1234H8.44801V6.56494Z" fill="#003399"/>
</g>
</g>
<defs>
<clipPath id="clip0_11322_23497">
<rect width="200" height="50.8505" fill="white"/>
</clipPath>
</defs>
</svg>
